<svg width="64" height="64" viewBox="0 0 64 64" fill="none" xmlns="http://www.w3.org/2000/svg">
  <circle cx="32" cy="32" r="24" fill="#22B573" fill-opacity="0.12"/>
  <ellipse cx="25.5" cy="23.5" rx="8.5" ry="3.5" stroke="#22B573" stroke-width="2.2"/>
  <path d="M17 23.5V30.5C17 32.4 20.8 34 25.5 34C30.2 34 34 32.4 34 30.5V23.5" stroke="#22B573" stroke-width="2.2" stroke-linecap="round" stroke-linejoin="round"/>
  <path d="M17 30.5V37.2C17 39.2 20.8 40.8 25.5 40.8C27.7 40.8 29.7 40.4 31.3 39.9" stroke="#22B573" stroke-width="2.2" stroke-linecap="round" stroke-linejoin="round"/>
  <path d="M17 27C17 29 20.8 30.6 25.5 30.6C30.2 30.6 34 29 34 27" stroke="#22B573" stroke-width="2.2" stroke-linecap="round"/>
  <path d="M31.6 39.6L37.2 34L40.4 37.2L47 27.8" stroke="#22B573" stroke-width="2.2" stroke-linecap="round" stroke-linejoin="round"/>
  <path d="M43.2 27.8H47V31.6" stroke="#22B573" stroke-width="2.2" stroke-linecap="round" stroke-linejoin="round"/>
</svg>
